<svg xmlns="http://www.w3.org/2000/svg" viewBox="0 0 1567.23 969.35"><defs><style>.cls-1{fill:#f2f6f9;}.cls-11,.cls-13,.cls-14,.cls-15,.cls-2,.cls-4,.cls-6,.cls-9{fill:none;}.cls-13,.cls-15,.cls-2,.cls-6,.cls-9{stroke:#fff;}.cls-11,.cls-13,.cls-14,.cls-15,.cls-2,.cls-4,.cls-6{stroke-miterlimit:10;}.cls-2,.cls-4{stroke-width:5px;}.cls-3{fill:#e4eff7;}.cls-4{stroke:#475056;}.cls-5{fill:#ffc774;}.cls-6{stroke-linecap:square;}.cls-11,.cls-13,.cls-6,.cls-9{stroke-width:3px;}.cls-7{fill:#24272d;}.cls-8{fill:#fff;}.cls-9{stroke-linejoin:round;}.cls-10{fill:#ea6f57;}.cls-11{stroke:#25282d;}.cls-12{fill:#004599;}.cls-14{stroke:#ea6f57;stroke-width:8px;}.cls-15{stroke-width:23px;}</style></defs><title>10</title><g id="Back"><rect class="cls-1" x="491.7" y="347.76" width="353.55" height="206.43" rx="34.74"/><path class="cls-1" d="M707.18,770.3c15.45-.93,52.66-8.14,56.05-55.75H728.82c-1.76,32-15.14,46.6-22.85,52.45A1.84,1.84,0,0,0,707.18,770.3Z" transform="translate(-198.61 -191.89)"/><line class="cls-2" x1="540.71" y1="447.19" x2="793.09" y2="447.19"/><line class="cls-2" x1="540.71" y1="477.69" x2="793.09" y2="477.69"/><line class="cls-2" x1="540.71" y1="386.19" x2="793.09" y2="386.19"/><line class="cls-2" x1="540.71" y1="416.69" x2="793.09" y2="416.69"/><line class="cls-2" x1="540.71" y1="508.19" x2="659.21" y2="508.19"/><rect class="cls-1" x="1201.47" y="555.54" width="337.76" height="196.88" rx="34.74"/><line class="cls-2" x1="1409.08" y1="632.25" x2="1365.62" y2="675.71"/><line class="cls-2" x1="1365.62" y1="632.25" x2="1409.08" y2="675.71"/><path class="cls-1" d="M1717.27,970.13c-15.45-.93-52.66-8.14-56-55.75h34.41c1.76,32,15.14,46.6,22.85,52.45A1.84,1.84,0,0,1,1717.27,970.13Z" transform="translate(-198.61 -191.89)"/><rect class="cls-1" x="123.09" y="661.09" width="368.3" height="182.67" rx="34.74"/><line class="cls-2" x1="168.45" y1="768.33" x2="420.83" y2="768.33"/><line class="cls-2" x1="168.45" y1="800.32" x2="420.83" y2="800.32"/><line class="cls-2" x1="168.45" y1="704.34" x2="420.83" y2="704.34"/><line class="cls-2" x1="168.45" y1="736.34" x2="420.83" y2="736.34"/><rect class="cls-1" x="1091.61" y="211.53" width="475.63" height="130.84" rx="34.74"/><path class="cls-1" d="M1748.19,562.13c-15.45-.93-52.66-8.14-56-55.75h34.41c1.76,32,15.14,46.6,22.85,52.45A1.84,1.84,0,0,1,1748.19,562.13Z" transform="translate(-198.61 -191.89)"/><rect class="cls-1" y="259.27" width="368.3" height="208.38" rx="34.74"/><rect class="cls-1" x="188.27" y="51.48" width="475.63" height="130.84" rx="34.74"/><rect class="cls-1" x="856.43" width="475.63" height="130.84" rx="34.74"/><line class="cls-2" x1="1140.16" y1="246.19" x2="1512.86" y2="246.19"/><line class="cls-2" x1="1140.16" y1="277.19" x2="1512.86" y2="277.19"/><line class="cls-2" x1="1140.16" y1="308.19" x2="1315.16" y2="308.19"/><path class="cls-1" d="M853.09,402.09c-15.45-.93-52.66-8.14-56.05-55.75h34.41c1.76,32,15.14,46.6,22.85,52.45A1.84,1.84,0,0,1,853.09,402.09Z" transform="translate(-198.61 -191.89)"/><path class="cls-1" d="M207.1,687.41c15.45-.93,52.66-8.14,56-55.75H228.74c-1.76,32-15.14,46.6-22.85,52.45A1.84,1.84,0,0,0,207.1,687.41Z" transform="translate(-198.61 -191.89)"/><path class="cls-1" d="M1070.46,356.33c15.45-.93,52.66-8.14,56-55.75H1092.1c-1.76,32-15.14,46.6-22.85,52.45A1.84,1.84,0,0,0,1070.46,356.33Z" transform="translate(-198.61 -191.89)"/><line class="cls-2" x1="1115.98" y1="43.69" x2="1072.51" y2="87.15"/><line class="cls-2" x1="1072.51" y1="43.69" x2="1115.98" y2="87.15"/><line class="cls-2" x1="205.88" y1="341.73" x2="162.42" y2="385.19"/><line class="cls-2" x1="162.42" y1="341.73" x2="205.88" y2="385.19"/><line class="cls-2" x1="230.16" y1="85.19" x2="602.86" y2="85.19"/><line class="cls-2" x1="230.16" y1="116.19" x2="602.86" y2="116.19"/><line class="cls-2" x1="230.16" y1="147.19" x2="405.16" y2="147.19"/></g><g id="Man"><ellipse class="cls-3" cx="835.48" cy="963.12" rx="493.94" ry="6.23"/><line class="cls-4" x1="382.4" y1="789.51" x2="382.4" y2="962.24"/><line class="cls-4" x1="563.4" y1="789.51" x2="563.4" y2="962.24"/><rect class="cls-5" x="333.94" y="617.96" width="268.92" height="268.92"/><rect class="cls-5" x="602.86" y="524.63" width="741.99" height="362.26"/><line class="cls-6" x1="426.09" y1="617.96" x2="426.09" y2="810.58"/><circle class="cls-6" cx="377.57" cy="660.83" r="16"/><path class="cls-7" d="M649.62,901.63s-6.47-62.25,58.77-62.25,111.69,62.25,111.69,62.25" transform="translate(-198.61 -191.89)"/><path class="cls-7" d="M837.07,866.79l-27.62-7.11,14.07-16.63a2.13,2.13,0,0,1,3.59.54Z" transform="translate(-198.61 -191.89)"/><path class="cls-7" d="M795.08,843.15l14,16.53-27.62,7.11,9.91-23.08A2.21,2.21,0,0,1,795.08,843.15Z" transform="translate(-198.61 -191.89)"/><ellipse class="cls-7" cx="611.12" cy="691.19" rx="34.15" ry="27.9"/><rect class="cls-5" x="580.4" y="709.19" width="74.62" height="24.77"/><line class="cls-6" x1="847.42" y1="709.74" x2="426.09" y2="709.74"/><path class="cls-8" d="M796.54,870.69c0-2.42,2.6-4.38,5.81-4.38s5.8,2,5.8,4.38" transform="translate(-198.61 -191.89)"/><path class="cls-8" d="M825.23,870.69c0-2.42,2.6-4.38,5.81-4.38s5.81,2,5.81,4.38" transform="translate(-198.61 -191.89)"/><path class="cls-9" d="M810.85,886.05s7.64-.46,7.64-7.69c0,0,2.33,7.12,7.11,7.12" transform="translate(-198.61 -191.89)"/><path class="cls-10" d="M814.93,876h6.6a1,1,0,0,1,.62,1.68l-3.3,2.82a1,1,0,0,1-1.24,0l-3.3-2.82A1,1,0,0,1,814.93,876Z" transform="translate(-198.61 -191.89)"/><path class="cls-7" d="M719.07,938.28c-9.59-11.14-32.71,11.6-47.18,2.38-22.74-14.49,17.43-78.3,3.19-87.64-8.81-5.76-31.25,39.37-27.32,72.47,2.43,20.45,20,35.25,41.91,33.76C702.68,958.36,725.15,945.34,719.07,938.28Z" transform="translate(-198.61 -191.89)"/><line class="cls-4" x1="1113.4" y1="789.51" x2="1113.4" y2="962.24"/><line class="cls-4" x1="1294.4" y1="789.51" x2="1294.4" y2="962.24"/><path class="cls-7" d="M1359.46,734.05,1276,722.53l-11.89,54.09,89.12,30.92c30.5,10.59,61.56-14.48,57.62-46.53s-8.15-63.75-9.91-67.88c-3.69-8.62-16.63-44.92-94.78-48.21s-115.9,68.52-115.9,68.52l161.54,144.41" transform="translate(-198.61 -191.89)"/><ellipse class="cls-7" cx="1259.28" cy="542.5" rx="63.46" ry="58.53" transform="translate(326.44 1508.62) rotate(-80.93)"/><path class="cls-10" d="M1287.31,673.73a24.1,24.1,0,0,1-20.92-20.15l-12.87-81.07A24.09,24.09,0,1,1,1301.1,565L1314,646a24.08,24.08,0,0,1-20,27.57A24.38,24.38,0,0,1,1287.31,673.73Z" transform="translate(-198.61 -191.89)"/><path class="cls-10" d="M1270.6,633.82l-4.92.75a39.41,39.41,0,0,1-45.32-40.3l1-28.67a39.38,39.38,0,0,1,33.87-37.66h0a39.39,39.39,0,0,1,44.52,33.5l3.94,27.92A39.4,39.4,0,0,1,1270.6,633.82Z" transform="translate(-198.61 -191.89)"/><polyline class="cls-11" points="1041.49 379.26 1031.77 403.45 1041.61 404.82"/><circle class="cls-7" cx="1052.8" cy="385.61" r="4.82"/><circle class="cls-7" cx="1029.79" cy="382.87" r="4.82"/><path class="cls-11" d="M1258.17,602.94s-5.91-.38-9,4.44" transform="translate(-198.61 -191.89)"/><path class="cls-7" d="M1407.82,632.55s6.72,52.68-37.47,52.15c-73.15-.89-84.89-48.94-79.82-76.7,2-11.06,8.85-19.25,16.46-27.09-39.45-8.65-36.76-34.47-36.76-34.47s-73.35,34.76-69.09-11.55,47.6-64.62,77.39-62.06c69.24,5.94,71.28,50.05,89.86,56.4C1473.71,565.27,1407.82,632.55,1407.82,632.55Z" transform="translate(-198.61 -191.89)"/><rect class="cls-10" x="1278.99" y="552.08" width="35.5" height="51.63" rx="17.75" transform="translate(257.3 -757.88) rotate(29.66)"/><line class="cls-11" x1="1105.58" y1="374.17" x2="1094.25" y2="394.06"/><line class="cls-6" x1="1080.92" y1="528.09" x2="1161.68" y2="540.17"/><line class="cls-6" x1="1139.54" y1="536.85" x2="1132.96" y2="507.94"/><path class="cls-10" d="M1217,727.41s35.08-28.95,64.46,7.51-22,30.16-22,30.16" transform="translate(-198.61 -191.89)"/><polygon class="cls-12" points="1084.45 576.4 913.37 576.4 813.37 505.65 984.45 505.65 1084.45 576.4"/><polygon class="cls-7" points="739.35 963.12 850.41 963.12 864.41 962.97 853.7 920.68 803.46 924.49 739.35 963.12"/><polygon class="cls-7" points="648.24 757.26 749.12 819.91 761.93 827.66 786.71 756.52 733.31 750.37 648.24 757.26"/><path class="cls-10" d="M1126.38,798.45l190.7,107.93H1072.81V1116H969.08V861.4c0-34.77,30-62.95,66.94-62.95Z" transform="translate(-198.61 -191.89)"/><path class="cls-10" d="M1122.73,823.15l100.63,74.45c36.64,27.1,87.6,15,109.48-26.08l29.08-53.67L1157.07,708.17c-31.2-16.69-69.32-7.72-90.73,21.36L916.08,933.62l78,64.21Z" transform="translate(-198.61 -191.89)"/><rect class="cls-5" x="1075.93" y="617.96" width="268.92" height="268.92"/><path class="cls-13" d="M1089.47,798.45l133.89,99.15s16.13,14.61,48,14.61" transform="translate(-198.61 -191.89)"/><path class="cls-13" d="M1012.24,803s11.54-4.56,23.78-4.56h53.45" transform="translate(-198.61 -191.89)"/><line class="cls-13" x1="771.89" y1="667.82" x2="771.89" y2="789.02"/><rect class="cls-12" x="813.37" y="380.99" width="171.08" height="126.95" rx="8.69"/><circle class="cls-10" cx="898.91" cy="339.77" r="9.17"/><path class="cls-14" d="M1075.16,514.06a31.6,31.6,0,0,1,44.7,0" transform="translate(-198.61 -191.89)"/><path class="cls-14" d="M1058.35,497.52a55.41,55.41,0,0,1,78.33,0" transform="translate(-198.61 -191.89)"/><path class="cls-14" d="M1042.26,481a78.14,78.14,0,0,1,110.51,0" transform="translate(-198.61 -191.89)"/><line class="cls-15" x1="934.8" y1="254.01" x2="863.46" y2="340.58"/><line class="cls-14" x1="937.8" y1="251.01" x2="866.46" y2="337.58"/><line class="cls-6" x1="1165.78" y1="620.96" x2="1165.78" y2="813.58"/><circle class="cls-6" cx="1121.3" cy="660.83" r="16"/><line class="cls-6" x1="1137.3" y1="618.12" x2="1344.86" y2="618.12"/><circle class="cls-8" cx="898.91" cy="441.76" r="16.21"/><path class="cls-8" d="M1111.72,603.25s-.93,6.31-5.34,9.33-10.63,1.64-10.63,1.64.93-6.31,5.34-9.34S1111.72,603.25,1111.72,603.25Z" transform="translate(-198.61 -191.89)"/></g></svg>